<svg width="208" height="105" viewBox="0 0 208 105" fill="none" xmlns="http://www.w3.org/2000/svg">
<g opacity="0.75">
<path d="M198.328 34.5131C198.054 33.7031 197.343 31.9911 195.616 30.6651C195.4 30.4991 192.734 28.5091 189.885 29.0461C187.699 29.4581 186.904 29.6871 186.904 29.6871C186.012 29.9551 185.381 30.1881 185.074 29.8931C184.77 29.6001 185.007 28.9941 185.075 28.5051C185.312 26.8111 183.714 25.2601 182.812 24.3851C180.171 21.8221 176.153 21.9101 174.449 21.9561C168.927 22.1071 165.427 25.2011 165.046 25.5491C163.437 27.0181 163.881 27.6731 162.321 28.3881C159.925 29.4861 157.907 28.3831 154.896 29.6691C154.224 29.9561 152.807 30.6811 152.367 31.7021C152.04 32.4631 152.302 33.0841 152.514 33.5841C152.709 34.0461 152.864 34.4111 152.53 34.7311C152.124 35.1211 151.335 35.1061 150.242 35.0851C149.612 35.0731 148.898 35.0591 148.097 35.1181C144.864 35.3571 143.302 38.8231 140.036 38.6471C139.447 38.6151 138.984 38.4671 138.746 38.3801C137.597 41.4041 137.993 43.2321 138.494 44.3071C142.23 52.3101 166.356 49.5371 176.744 48.3421C180.79 47.8771 182.93 47.4121 187.313 47.3351C193.343 47.2291 195.904 47.1181 201.027 46.8951C203.975 46.7671 205.169 46.6861 206.156 45.7241C208.433 43.5081 208.042 38.1461 205.242 35.6341C203.693 34.2451 201.725 34.0121 201.593 33.9981C200.083 33.8411 198.895 34.2661 198.328 34.5131Z" fill="#F2F7F8"/>
<path d="M192.674 37.8071C194.154 37.7031 197.038 37.5001 198.133 35.3841C199.213 33.2971 197.858 30.6921 196.661 29.3761C194.217 26.6901 190.468 27.2212 189.905 27.3102C187.379 27.7072 185.773 29.2081 185.205 29.7951C185.228 28.7961 185.129 27.1301 184.309 25.3241C182.718 21.8201 179.59 20.3892 178.623 19.9652C174.2 18.0242 170.084 19.5272 168.885 20.0302C167.697 20.5292 165.409 21.5272 163.853 24.0162C162.802 25.6982 162.531 27.3451 162.451 28.2891C161.777 27.9311 159.797 26.9961 157.367 27.4921C154.621 28.0521 152.376 30.2201 151.463 33.1041C150.072 32.7981 147.343 32.4182 144.328 33.5252C143.383 33.8722 141.307 34.6641 139.762 36.6821C138.735 38.0241 137.851 40.0252 138.38 40.4992C138.818 40.8912 139.853 39.9001 142.065 38.9531C143.436 38.3671 147.315 36.7082 150.939 37.9122C152.667 38.4862 152.518 39.1071 154.183 39.4931C157.158 40.1831 159.788 38.7002 160.435 38.3352C163.688 36.5012 164.858 33.3821 165.161 32.4791C165.839 32.9461 166.829 33.5511 168.102 34.0791C172.3 35.8211 176.075 35.2722 177.251 35.0592C180.166 34.5322 182.32 33.3131 183.59 32.4451C183.947 33.2481 184.723 34.6942 186.27 35.9092C188.772 37.8782 191.553 37.8861 192.674 37.8071Z" fill="white"/>
<path d="M163.199 42.6431C164.137 43.3101 165.241 43.9451 166.523 44.4501C172.801 46.9261 178.905 44.5441 180.975 43.6231C182.505 44.3181 184.774 45.0391 187.314 44.5381C188.614 44.2821 188.796 43.9401 190.19 43.6881C192.885 43.2021 196.893 44.3171 196.893 44.3171C202.269 45.9191 206.353 44.1761 206.561 45.0701C206.764 45.9421 202.972 47.9801 199.138 48.7821C194.145 49.8261 189.673 49.0851 186.513 48.1571C183.039 50.2791 179.939 51.2821 177.837 51.7921C173.288 52.8961 171.552 52.1411 170.714 51.5961C170.089 51.1901 170.171 51.0361 169.554 50.6881C167.648 49.6131 165.575 50.3581 162.723 50.9991C162.723 50.9991 159.887 51.6321 156.99 51.9231C154.394 52.1841 150.195 52.6071 145.956 50.6111C144.744 50.0401 142.923 48.9871 141.081 47.0151C141.965 45.9671 143.484 44.4951 145.684 43.9511C149.906 42.9071 152.787 46.8351 157.382 45.5851C160.122 44.8391 162.087 43.5141 163.199 42.6431Z" fill="#CEEAF0"/>
</g>
<g opacity="0.5">
<path d="M53.822 6.45805C56.4819 4.78281 59.1839 3.26055 61.9848 1.92274C59.8714 1.3744 58.1571 1.46631 57.9689 1.47953C57.5704 1.50724 52.3136 1.94981 49.3295 5.95882C47.9734 7.78075 47.4585 9.83561 46.9964 11.0639C49.3862 9.90486 51.5789 7.87077 53.822 6.45805Z" fill="#F2F7F8"/>
<path d="M97.0711 20.917C95.868 19.9639 94.5982 19.7417 94.0586 19.6535C90.9952 19.153 89.4169 21.0977 88.1736 20.2371C87.2431 19.5931 87.9998 18.4372 87.0662 16.3339C86.9636 16.1022 85.7278 13.4266 82.8727 12.3513C80.5075 11.4605 78.3066 12.1486 77.4183 12.4262C74.0596 13.4763 73.0378 15.749 71.8662 15.2372C70.8281 14.7839 71.3582 12.9129 70.2955 9.85262C70.077 9.22307 69.1862 6.81124 67.3001 4.89299C66.1511 3.72453 64.8391 2.95144 63.5693 2.44087C58.57 4.69405 53.8647 7.55223 49.4547 10.8316C44.5763 14.4591 38.8291 12.3715 33.1883 12.9116C29.2989 13.2843 25.9994 15.2983 22.958 17.622C21.5573 18.6922 20.837 19.8008 19.7202 21.1128C19.4394 21.4421 18.961 22.1038 18.4636 22.2334C17.3399 22.5274 15.5715 21.6587 14.1801 20.946C14.5012 21.9262 15.1037 22.4299 14.9526 22.6061C14.7826 22.8044 13.9749 22.219 12.8449 21.8154C11.485 21.33 10.3317 21.3558 9.61399 21.359C9.06376 21.3615 6.81057 21.4201 4.59957 22.756C4.55236 22.7843 4.48249 22.8271 4.3931 22.8831C3.94989 23.1633 0.00257293 25.7583 0.0202005 29.8542C0.0302733 32.2364 1.37941 34.494 3.11068 35.7172C5.10007 37.123 6.25657 36.2184 10.2121 37.7948C12.5622 38.7315 12.2902 39.1049 14.449 39.912C17.6257 41.0993 20.3939 41.1056 22.0124 41.0943C24.044 41.0804 26.3897 41.0647 29.1466 40.0328C32.2056 38.8883 34.0029 37.1551 36.3222 37.8634C36.9322 38.0497 36.9606 38.2373 37.9269 38.5295C38.4337 38.6824 40.1461 39.1615 42.3968 38.9903C46.1376 38.7057 47.0032 36.9568 49.5416 36.7113C52.476 36.4274 53.9932 38.8694 56.789 40.0196C66.6453 44.0733 80.6315 41.817 84.6814 35.1972C85.4671 33.9129 85.6081 32.9069 86.9088 31.9229C90.0622 29.5382 93.635 32.0696 96.9464 29.6515C97.2637 29.4198 99.1864 27.9687 99.3614 25.6393C99.5635 22.9486 97.2857 21.0864 97.0711 20.917Z" fill="#F2F7F8"/>
<path d="M97.1454 31.9267C94.211 33.3709 88.6451 31.1441 87.381 32.1942C87.0272 32.4882 86.7496 32.8257 86.7496 32.8257C86.2125 33.5239 86.2006 34.1717 84.7041 35.8306C82.2382 38.5634 79.3932 39.837 79.278 39.6752C79.1093 39.4392 82.3553 37.8684 85.1077 34.1389C86.29 32.5373 90.2877 27.1207 88.4393 21.3281C87.3224 17.8284 84.6538 16.0159 84.1564 15.6892C79.4914 12.6289 74.3096 14.6826 73.9495 14.833C71.8619 15.7018 70.5159 17.0421 69.8152 17.8561C69.3877 16.7273 68.2765 14.2608 65.6998 12.2991C63.1224 10.3367 60.516 9.97348 59.0995 9.79595C54.2349 9.18591 50.4438 11.1589 49.3534 11.7451C46.2453 13.4165 45.7612 14.9356 44.1627 15.8907C43.7655 16.128 43.2587 16.3477 42.6398 16.5102C42.0153 16.6738 41.4814 16.711 41.1276 16.7166C39.7218 14.1348 36.926 13.0766 34.8812 13.9227C32.9887 14.7052 32.4058 16.8438 32.3283 17.1454C31.7825 16.7991 30.7916 16.2778 29.4815 16.1784C27.5645 16.0323 26.1486 16.8778 25.3138 17.3764C21.9275 19.3985 20.6973 23.0884 20.3492 24.2902C19.5465 23.8174 18.419 23.3446 17.3072 23.6682C15.936 24.0673 15.7251 25.346 14.692 25.4335C13.3907 25.543 12.8468 23.5882 11.2175 22.5715C10.0383 21.8362 8.03006 21.4295 4.39313 22.8844C5.40923 22.2832 7.27082 21.3835 9.61402 21.3602C10.3462 21.3527 11.5071 21.291 12.8449 21.8167C13.1911 21.9527 13.4688 22.0949 13.6614 22.2026C13.5588 21.8249 13.4436 21.2161 13.5273 20.477C13.5619 20.1704 13.6853 19.1832 14.3785 18.2868C15.3927 16.9754 17.3185 16.2564 18.7381 16.7702C19.7568 17.1391 20.273 18.0551 20.5003 17.9008C20.7263 17.7472 20.0778 16.9338 20.149 15.8113C20.2503 14.2047 21.7524 13.1521 21.9615 13.0098C22.3467 12.7479 23.6185 11.8836 25.0784 12.3482C26.0007 12.6415 26.5301 13.317 26.7335 13.6098C26.7014 12.9903 26.6963 11.2804 27.8062 9.60079C28.0197 9.2772 29.5558 7.03598 32.4366 6.72498C34.6231 6.4889 36.2247 7.51193 36.6672 7.80341C37.9956 8.67975 38.6717 9.81358 38.9626 10.3846C39.1149 10.0597 39.5323 9.29105 40.4099 8.84721C41.9045 8.09049 43.3877 8.88184 43.5577 8.9769C44.6777 9.60268 45.0825 10.6578 45.1851 10.9562C45.4061 9.65178 46.0917 6.7061 48.5306 4.11548C51.249 1.22834 55.6194 -0.664726 59.9702 0.218539C63.8999 1.01618 66.2601 3.70879 67.2995 4.89487C69.2341 7.10209 70.0846 9.26902 70.2949 9.8545C70.8464 11.3868 71.0453 12.746 71.119 13.7168C72.1848 12.8997 74.2214 11.5864 77.0765 11.1495C78.2821 10.965 80.4383 10.6622 82.8979 11.6424C85.4967 12.6774 86.9 14.5327 87.5113 15.3625C88.8831 17.226 89.3887 19.0706 89.5945 20.1244C90.3651 19.8078 92.0428 19.2481 94.0587 19.6554C96.4283 20.1345 99.2254 21.9413 99.8632 25.035C100.41 27.6866 99.2821 30.8753 97.1454 31.9267Z" fill="white"/>
<path d="M94.952 22.6521C92.4288 21.2091 89.6014 22.1239 88.7194 22.4091C85.9979 23.2898 86.1194 24.5577 84.0204 24.858C81.5935 25.2056 81.0452 23.5656 78.5647 23.8816C76.2838 24.1718 76.1372 25.6607 73.7234 26.0045C72.0476 26.2431 71.8001 25.5713 68.7896 25.0381C67.5431 24.8171 64.7982 24.3544 61.6461 24.943C60.3838 25.1791 58.4882 25.6891 56.3452 26.9236C55.6344 28.0637 54.0436 30.6839 50.8385 31.8751C48.399 32.7816 45.5717 33.0265 43.0075 32.8572C41.1981 32.7376 33.544 31.7605 32.7382 28.8179C30.3157 30.75 27.7987 32.7338 24.7302 33.4099C23.2048 33.7461 19.945 34.4229 16.6222 32.7313C15.0351 31.9235 13.9743 30.8476 13.3466 30.0934C12.4659 30.5146 10.8549 31.1158 8.87428 30.9068C4.14318 30.4063 1.83838 25.7552 1.66463 25.39C1.15028 26.1134 0.188959 27.6784 0.0214971 29.8542C-0.0225717 30.4227 -0.256138 34.3398 2.8759 37.0286C5.89272 39.6186 9.56553 38.9519 10.0213 38.8606C11.1287 39.8377 15.7295 43.6685 22.664 43.6244C30.4913 43.5747 35.3867 38.6258 36.2524 37.7192C36.6389 38.1165 39.2717 40.7329 43.3682 40.5094C47.2796 40.296 49.5655 37.655 49.9395 37.2086C51.4435 38.1291 53.7571 39.3982 56.75 40.4616C59.8122 41.5494 71.1536 45.5773 81.4796 39.9598C83.3279 38.9544 86.1685 37.0821 88.9165 33.6403C92.7926 34.9712 96.6084 33.4911 97.8348 30.8778C98.752 28.9231 98.1571 26.471 97.1857 24.8839C96.9219 24.4558 96.2571 23.3981 94.952 22.6521Z" fill="#CEEAF0"/>
<path d="M84.8811 33.2645C84.7546 33.5667 84.3756 34.3587 82.6172 35.9218C81.2819 37.1092 79.6633 38.5483 77.1357 39.5405C75.8438 40.0473 70.2956 42.2249 67.2655 39.764C65.8245 38.5937 65.6841 36.9688 64.2462 36.7931C62.9512 36.6351 62.2832 37.8816 60.9832 37.5725C59.9268 37.3213 59.2356 36.2291 58.9863 35.4295C58.3107 33.2626 60.081 30.6795 62.1233 29.8259C62.4904 29.6723 63.215 29.3436 64.1618 29.4664C65.3133 29.615 66.0543 30.3194 66.308 30.5845C66.3225 30.3031 66.4333 28.6763 67.7774 27.6029C69.6182 26.1329 71.9696 27.1402 72.0766 27.188C72.8516 27.5355 73.3558 28.0499 73.6354 28.3873C73.879 27.8654 74.8082 26.0397 76.8782 25.2144C79.4417 24.192 82.5328 25.1917 84.1407 27.4115C85.3954 29.1447 85.6347 31.4665 84.8811 33.2645Z" fill="white"/>
<path d="M84.6903 33.7039C84.7407 33.7511 83.423 35.6801 81.5154 37.2685C76.853 41.1515 69.3468 42.7405 66.8242 40.0977C66.0737 39.3114 65.985 38.3815 64.8436 37.8974C63.4693 37.3144 62.4173 38.1618 60.9819 37.5719C60.0382 37.1835 59.4577 36.3915 59.1083 35.76C59.5333 36.0245 60.3057 36.4186 61.33 36.4815C63.4466 36.6112 64.8984 35.2186 65.1577 34.9611C66.3438 35.9439 68.6474 37.5574 71.9399 38.1631C73.5132 38.4526 77.825 38.9934 81.4846 36.615C83.3663 35.393 84.6418 33.6586 84.6903 33.7039Z" fill="#CEEAF0"/>
</g>
<path d="M8.05845 92.2923C10.052 94.9089 14.0137 95.849 17.7364 94.3958C18.1667 95.1967 18.859 96.3348 19.9068 97.5284C25.933 104.394 37.0444 105.48 45.2843 103C47.3624 102.375 50.4235 101.172 53.7339 98.698C54.9199 99.3084 56.4667 99.9621 58.3398 100.418C61.2302 101.122 63.7349 101.072 65.4496 100.894C69.3995 102.428 72.9238 103.207 75.7272 103.62C78.7502 104.064 92.1801 105.736 103.104 98.3476C106.81 95.841 107.845 93.9039 108.203 92.2687C108.956 88.8296 107.124 84.8665 105.387 83.7383C104.789 83.3503 103.43 82.5118 101.966 80.9114C101.735 80.6588 101.517 80.355 101.286 79.9374C99.1445 76.0745 103.232 73.0252 102.213 68.2462C101.012 62.6154 93.1272 56.9114 87.1828 57.986C84.1946 58.5263 83.2978 60.4931 80.5062 60.0971C76.9631 59.5943 76.6706 56.1791 73.404 55.6345C69.5363 54.9898 64.684 58.8988 63.9818 62.7523C63.6108 64.7882 64.3557 67.0521 64.0561 67.1165C63.829 67.165 63.6902 65.8538 62.6824 64.9053C61.3685 63.6689 58.9846 63.438 57.1063 64.2807C55.2806 65.1 53.8011 66.9929 53.8594 68.8646C53.9276 71.0533 56.0782 72.5648 55.892 72.7519C55.6987 72.9466 53.8293 70.9178 51.2141 69.5832C47.4922 67.6837 43.4803 68.8119 42.915 68.9793C38.357 70.3305 35.6702 74.397 35.3702 74.8645C34.3972 76.3797 34.297 77.2248 33.2967 77.6076C31.6131 78.2519 30.4266 76.4173 26.7095 75.5572C25.1458 75.1955 23.3817 74.7869 21.4601 75.5299C18.7217 76.5885 17.5544 79.1732 17.4576 79.3971C16.5767 81.4282 17.3141 82.5343 16.4239 83.1622C15.2345 84.0002 13.7 82.1421 10.7555 82.6486C10.1794 82.7478 8.83583 82.9454 7.86658 83.8887C5.95017 85.7548 6.18295 89.8303 8.05845 92.2923Z" fill="#E9F4F6"/>
<path d="M22.403 86.3084C24.295 85.2968 27.5625 83.5501 31.4658 82.9802C37.9962 82.0264 39.7132 85.3292 45.0674 84.106C49.6564 83.0578 49.9377 80.2788 54.292 78.5637C57.5083 77.2968 62.5813 76.7536 70.4952 80.4651C71.463 79.4643 73.316 77.8399 76.0841 77.0188C80.8372 75.6089 86.9269 76.9718 89.3724 80.6791C91.9016 84.5138 88.9694 88.4872 92.0126 91.3639C93.92 93.167 96.777 93.2173 97.3221 93.2267C101.312 93.2968 103.579 90.5278 104.681 91.3639C105.609 92.0679 105.135 94.8901 103.921 97.0294C99.4144 104.966 83.9434 104.85 75.7271 103.62C71.2063 102.944 67.6439 101.744 65.4495 100.895C63.7353 101.072 61.2301 101.123 58.3398 100.419C56.4666 99.9631 54.9198 99.3098 53.7338 98.6989C50.4235 101.173 47.3624 102.376 45.2842 103.001C37.0443 105.481 25.9329 104.395 19.9067 97.5293C18.8589 96.3358 18.1667 95.1972 17.7364 94.3968C16.5442 94.8482 14.7289 95.3025 12.6258 94.9404C11.6283 94.7688 8.57429 94.2425 8.05838 92.2932C7.78562 91.2619 8.24133 89.9032 9.10994 89.5016C10.0952 89.0454 11.0169 90.0956 12.37 90.5263C15.2862 91.4533 17.8323 88.7515 22.403 86.3084Z" fill="#CEEAF0"/>
<path d="M6.29908 84.2777C6.55867 83.9221 7.62669 82.5381 9.57132 81.9342C11.3095 81.3944 12.7848 81.7767 13.8194 82.0452C14.9561 82.3401 15.8299 82.7841 16.3947 83.1194C16.2621 82.1426 16.0114 79.2898 17.8102 76.9262C20.9028 72.8629 27.0522 74.1906 27.6547 74.3302C30.5295 74.9966 32.4168 76.676 33.2788 77.5592C33.505 76.6915 35.0198 71.2461 40.3768 68.6059C41.664 67.9715 45.1088 66.5451 49.1876 67.5925C51.0048 68.059 52.3573 68.8651 53.1897 69.4529C53.1243 66.5959 54.8258 64.0799 57.2953 63.2452C60.1856 62.2684 62.6918 64.0799 62.9203 64.2511C62.9029 63.9487 62.6405 57.416 67.9914 53.8508C72.5104 50.8395 77.3919 52.3713 77.8603 52.5269C81.3038 53.6725 83.1515 56.158 83.7394 57.0256C84.4255 56.7562 91.7464 54.0248 98.3915 58.4544C103.585 61.9166 106.022 68.1921 105.175 73.6601C104.793 76.1262 103.807 78.0022 103.087 79.1379C103.95 79.5269 105.23 80.2243 106.488 81.4386C107.123 82.0518 108.594 83.4984 109.38 85.8682C109.696 86.8214 110.691 89.8007 109.207 92.8416C107.742 95.842 104.67 97.2509 104.492 97.0553C104.412 96.9674 104.907 96.5356 105.454 95.7051C105.754 95.2513 107.147 93.0433 107 90.1539C106.82 86.6376 104.476 84.3868 103.827 83.8088C101.92 82.1078 99.8362 81.6333 98.914 81.4804C99.1835 80.1302 99.8292 75.9776 97.5996 71.5885C97.3103 71.0194 94.4463 65.5985 88.2141 63.9149C85.5123 63.185 83.1562 63.422 81.9452 63.6256C78.0419 64.2821 76.6635 66.3928 71.9837 67.5939C70.0856 68.0811 68.4791 68.2137 67.4746 68.2537C66.8801 69.3382 65.8982 70.8727 64.3458 72.4115C63.345 73.4038 62.6264 74.1261 61.526 74.5263C58.6873 75.5586 56.1374 74.0481 55.7683 73.8214C54.6622 73.0769 51.4685 71.1398 47.0144 71.2894C45.0016 71.3566 41.2863 71.8984 38.0254 74.7615C35.2018 77.2403 34.162 80.1919 33.7952 81.4593C33.2779 80.918 30.1872 77.7863 25.6724 78.0511C24.7638 78.1043 22.3555 78.2816 20.2839 80.1641C17.5821 82.6195 17.5718 86.0492 17.5798 86.6291C17.1363 86.0732 16.0471 84.8712 14.2619 84.3901C12.0822 83.8027 9.06106 84.3825 7.60553 86.7147C6.57466 88.3663 6.74773 90.975 8.08945 92.2518C8.20091 92.3581 8.32318 92.4554 8.45674 92.5457C8.31519 92.4931 8.17269 92.4188 8.02972 92.3355C7.40942 91.9758 5.62187 90.9397 5.12478 88.862C4.58772 86.6202 5.93602 84.7748 6.29908 84.2777Z" fill="white"/>
<path d="M80.4774 96.0432C76.7763 95.9191 73.3371 93.3838 71.6055 89.559C68.5077 91.9908 66.312 92.1719 64.9011 91.9146C61.358 91.2689 61.0866 87.5551 56.4614 86.0111C52.9686 84.8453 49.4988 85.5724 49.4988 85.5724C46.8982 86.1174 45.3161 87.3467 43.5544 86.5976C42.4324 86.1202 41.8012 85.0805 41.4551 84.3336C42.1817 84.2401 42.7117 84.0355 43.0404 83.8817C44.55 83.1753 45.6312 81.8449 46.3263 80.7327C47.6685 79.4643 50.1111 77.5263 53.6745 76.4775C59.5446 74.7502 64.4924 76.6036 66.0373 77.262C67.838 78.029 69.1967 78.9541 70.0959 79.6524C70.0794 79.0462 70.0973 78.1945 70.2553 77.1943C70.3526 76.5787 70.8427 73.4823 72.7191 71.2687C75.2403 68.2932 79.962 67.2684 83.8277 68.4879C88.1816 69.8616 90.0961 73.614 90.7249 74.8471C93.2005 79.699 92.6897 85.7294 89.7081 90.1195C88.6091 91.7383 85.5687 96.2139 80.4774 96.0432Z" fill="#E9F4F6"/>
<path d="M86.1482 94.1433C86.1322 94.1268 86.1162 94.1108 86.1002 94.0949C88.8923 91.5464 90.9968 87.4761 90.1724 84.9351C90.0539 84.5697 89.6739 83.3982 88.6529 82.9115C87.5868 82.4036 86.8583 83.1363 85.6817 83.1401C82.7189 83.1499 82.1324 78.5209 78.4821 77.7689C76.553 77.3716 74.9183 78.2938 74.5096 78.5242C71.994 79.9435 71.3756 82.6505 71.2712 83.1457C70.2648 82.2023 68.5483 80.8253 66.091 79.8622C62.0489 78.2778 58.3817 78.766 56.5584 79.1379C53.2142 79.8203 50.4503 81.5453 49.2704 82.3599C46.6532 84.1667 45.1394 86.0836 43.2865 85.6584C42.431 85.4623 41.8324 84.8411 41.4543 84.3332C42.1808 84.2396 42.7108 84.035 43.0396 83.8812C44.5492 83.1749 45.6304 81.8444 46.3255 80.7322C48.6708 77.0753 54.0329 75.7472 54.625 75.6005C58.7297 74.5842 62.3123 75.8596 64.4258 76.6116C66.9535 77.5112 68.853 78.726 70.095 79.652C70.0786 79.0458 70.0964 78.1941 70.2545 77.1938C70.3518 76.5782 70.8447 73.4842 72.7183 71.2682C75.1492 68.3934 79.8205 67.2238 83.8269 68.4874C88.1807 69.8611 90.0953 73.6135 90.724 74.8466C94.4863 82.2211 89.9043 89.7998 89.7073 90.1191C89.1204 91.0724 87.9879 92.6262 86.1482 94.1433Z" fill="white"/>
<path d="M38.2733 93.7666C38.2916 93.5079 38.3208 92.6478 37.7362 91.8953C37.0148 90.9665 35.8974 90.895 35.5024 90.8696C34.2316 90.7883 33.316 91.4363 33.047 91.6423C33.0583 91.3051 33.071 89.8454 31.9762 88.6029C30.9862 87.4794 29.7273 87.2569 29.2678 87.1826C28.9537 87.1318 26.5909 86.7866 25.3071 88.3287C24.5758 89.2072 24.4728 90.3645 24.4502 90.618C24.4102 91.0667 24.4455 91.4439 24.4859 91.7072C24.3966 91.5699 23.6535 90.4718 22.2784 90.366C20.9574 90.2639 20.0935 91.1584 19.8856 91.3733C18.6493 92.653 18.969 94.4353 19.0067 94.6267C18.0849 94.3469 17.0917 94.6324 16.4958 95.3439C15.8219 96.149 15.7805 97.3516 16.4187 98.2484C16.6007 98.4078 16.8772 98.6378 17.2313 98.8889C17.4246 99.0262 19.4534 100.434 22.0099 100.755C25.7957 101.232 26.8872 98.8409 30.8193 99.6C31.8492 99.7989 31.567 99.9226 32.7691 100.178C33.5295 100.339 38.0659 101.301 41.119 98.7549C41.7618 98.2188 42.9874 97.1724 42.8632 95.7352C42.7739 94.7025 41.997 93.5954 40.7916 93.2615C39.4758 92.8984 38.4078 93.6664 38.2733 93.7666Z" fill="white"/>
<path d="M30.7172 95.9073C32.7704 96.4011 34.1187 97.6342 34.7546 98.3128C34.8528 98.1332 35.8235 96.4237 37.6435 96.285C38.815 96.1956 40.334 96.7576 40.5141 97.7005C40.698 98.6641 39.4076 99.6245 39.1334 99.8286C37.1662 101.293 35.4101 100.471 30.5766 100.71C27.6951 100.852 26.9925 101.21 24.6425 100.964C21.2466 100.608 20.4335 99.6226 20.1386 99.0549C20.0855 98.9529 19.7638 98.311 19.9072 97.5279C20.1776 96.0522 21.8476 95.4634 22.0277 95.4027C22.2521 95.3275 23.8722 94.7838 24.8951 95.7686C25.3926 96.2473 25.5191 96.8667 25.5577 97.1639C25.8643 96.8244 26.3854 96.3386 27.1529 96.0056C28.5722 95.3914 29.8923 95.7089 30.7172 95.9073Z" fill="#E9F4F6"/>
</svg>
